<svg xmlns="http://www.w3.org/2000/svg" viewBox="0 10.369999885559082 178.25 43.540000915527344" data-asc="0.96875" width="178.25" height="43.540000915527344"><defs/><g fill="#ffffff"><g transform="translate(0, 0)"><path d="M24.75 23.83Q24.38 22.53 23.70 21.53Q23.03 20.53 22.06 19.82Q21.09 19.12 19.86 18.75Q18.63 18.38 17.13 18.38Q14.35 18.38 12.24 19.76Q10.14 21.15 8.97 23.78Q7.79 26.42 7.79 30.22Q7.79 34.02 8.95 36.68Q10.10 39.35 12.22 40.74Q14.33 42.13 17.21 42.13Q19.82 42.13 21.67 41.20Q23.53 40.27 24.51 38.57Q25.50 36.86 25.50 34.53L27.06 34.77L17.68 34.77L17.68 28.98L32.90 28.98L32.90 33.56Q32.90 38.35 30.88 41.79Q28.85 45.22 25.30 47.08Q21.75 48.93 17.17 48.93Q12.06 48.93 8.19 46.67Q4.31 44.41 2.16 40.23Q0 36.04 0 30.29Q0 25.87 1.29 22.40Q2.57 18.93 4.90 16.51Q7.23 14.10 10.32 12.84Q13.41 11.58 17.01 11.58Q20.10 11.58 22.76 12.47Q25.43 13.37 27.49 15.00Q29.56 16.64 30.88 18.88Q32.19 21.13 32.56 23.83L24.75 23.83ZM50.96 48.97Q46.75 48.97 43.72 47.26Q40.70 45.54 39.06 42.39Q37.43 39.24 37.43 34.93Q37.43 30.72 39.06 27.54Q40.70 24.36 43.67 22.59Q46.64 20.81 50.66 20.81Q53.36 20.81 55.69 21.67Q58.03 22.53 59.77 24.25Q61.52 25.98 62.50 28.58Q63.48 31.18 63.48 34.66L63.48 36.74L40.45 36.74L40.45 32.05L56.36 32.05Q56.36 30.42 55.65 29.15Q54.94 27.89 53.68 27.18Q52.43 26.46 50.78 26.46Q49.06 26.46 47.74 27.25Q46.41 28.04 45.67 29.36Q44.92 30.68 44.90 32.30L44.90 36.75Q44.90 38.78 45.66 40.25Q46.41 41.73 47.80 42.52Q49.18 43.32 51.08 43.32Q52.34 43.32 53.39 42.97Q54.44 42.61 55.18 41.90Q55.93 41.19 56.32 40.16L63.32 40.63Q62.78 43.15 61.14 45.02Q59.50 46.89 56.92 47.93Q54.33 48.97 50.96 48.97ZM75.98 32.67L75.98 48.44L68.41 48.44L68.41 21.16L75.62 21.16L75.62 25.98L75.94 25.98Q76.85 23.60 78.98 22.20Q81.11 20.81 84.14 20.81Q86.99 20.81 89.10 22.05Q91.21 23.30 92.38 25.59Q93.55 27.89 93.55 31.07L93.55 48.44L85.99 48.44L85.99 32.42Q86.01 29.92 84.71 28.51Q83.42 27.10 81.14 27.10Q79.62 27.10 78.45 27.75Q77.29 28.41 76.64 29.66Q75.99 30.91 75.98 32.67ZM114.01 21.16L114.01 26.85L97.59 26.85L97.59 21.16L114.01 21.16M101.31 14.63L108.88 14.63L108.88 40.06Q108.88 41.10 109.20 41.68Q109.52 42.26 110.09 42.49Q110.67 42.72 111.43 42.72Q111.97 42.72 112.50 42.62Q113.03 42.52 113.32 42.47L114.51 48.10Q113.94 48.28 112.91 48.52Q111.88 48.76 110.40 48.81Q107.67 48.92 105.62 48.08Q103.57 47.25 102.43 45.49Q101.30 43.73 101.31 41.05L101.31 14.63ZM126.49 12.07L126.49 48.44L118.93 48.44L118.93 12.07L126.49 12.07ZM144.96 48.97Q140.75 48.97 137.72 47.26Q134.69 45.54 133.06 42.39Q131.43 39.24 131.43 34.93Q131.43 30.72 133.06 27.54Q134.69 24.36 137.67 22.59Q140.64 20.81 144.66 20.81Q147.35 20.81 149.69 21.67Q152.02 22.53 153.77 24.25Q155.52 25.98 156.50 28.58Q157.48 31.18 157.48 34.66L157.48 36.74L134.45 36.74L134.45 32.05L150.36 32.05Q150.36 30.42 149.64 29.15Q148.93 27.89 147.68 27.18Q146.43 26.46 144.78 26.46Q143.06 26.46 141.73 27.25Q140.41 28.04 139.67 29.36Q138.92 30.68 138.90 32.30L138.90 36.75Q138.90 38.78 139.66 40.25Q140.41 41.73 141.80 42.52Q143.18 43.32 145.08 43.32Q146.34 43.32 147.39 42.97Q148.44 42.61 149.18 41.90Q149.93 41.19 150.32 40.16L157.32 40.63Q156.78 43.15 155.14 45.02Q153.50 46.89 150.91 47.93Q148.33 48.97 144.96 48.97ZM178.25 10.37L166.53 53.91L160.01 53.91L171.73 10.37L178.25 10.37Z"/></g></g></svg>